<?xml version="1.0" standalone="no"?>
<!DOCTYPE svg PUBLIC "-//W3C//DTD SVG 20010904//EN"
 "http://www.w3.org/TR/2001/REC-SVG-20010904/DTD/svg10.dtd">
<svg version="1.0" xmlns="http://www.w3.org/2000/svg"
 width="1024.000000pt" height="1024.000000pt" viewBox="0 0 1024.000000 1024.000000"
 preserveAspectRatio="xMidYMid meet">
<metadata>
Created by potrace 1.14, written by Peter Selinger 2001-2017
</metadata>
<g transform="translate(0.000000,1024.000000) scale(0.100000,-0.100000)"
fill="#000000" stroke="none">
<path d="M4899 8096 c-2 -2 -33 -7 -69 -10 -138 -14 -169 -19 -285 -42 -66
-14 -127 -26 -135 -28 -209 -52 -483 -152 -620 -226 -8 -5 -46 -25 -85 -46
-136 -72 -372 -228 -455 -300 -14 -12 -47 -41 -75 -64 -77 -65 -215 -201 -286
-282 -35 -40 -66 -75 -70 -78 -3 -3 -18 -23 -35 -45 -16 -22 -37 -49 -47 -60
-23 -25 -174 -253 -212 -320 -91 -158 -187 -375 -242 -545 -32 -100 -80 -276
-89 -330 -3 -14 -9 -47 -14 -75 -5 -27 -12 -72 -16 -100 -3 -27 -8 -59 -10
-70 -25 -130 -24 -585 1 -739 4 -21 9 -58 21 -133 3 -21 7 -45 9 -53 2 -8 7
-29 10 -47 35 -206 183 -617 285 -793 5 -8 27 -47 49 -87 94 -166 285 -425
401 -542 89 -90 140 -68 228 97 34 64 76 172 88 227 11 51 24 143 29 200 3 39
7 90 10 115 3 25 7 74 10 110 2 36 7 85 10 110 3 25 7 72 10 105 3 33 7 76 9
95 3 19 8 62 11 95 3 33 8 85 12 115 3 30 7 66 8 80 10 92 16 148 21 168 2 12
7 44 10 70 2 26 6 61 9 77 2 17 7 53 10 80 4 28 8 57 10 65 2 8 7 38 11 65 3
28 7 57 9 65 1 8 6 35 10 60 4 25 9 54 11 65 3 11 7 36 10 55 3 19 19 103 36
185 37 186 36 183 42 203 3 9 8 32 11 51 3 19 10 42 16 52 5 10 8 22 7 26 -4
20 64 241 143 463 144 400 291 642 433 708 54 26 108 28 131 6 22 -23 44 -79
51 -133 9 -64 12 -357 4 -425 -8 -78 19 -126 78 -134 26 -3 67 24 142 94 136
127 326 271 442 334 137 75 199 46 193 -90 -1 -30 -6 -73 -10 -95 -20 -110
-115 -308 -187 -389 -11 -12 -18 -36 -18 -58 0 -53 31 -80 111 -96 177 -36
574 -185 816 -307 183 -92 249 -128 272 -149 10 -9 21 -16 25 -16 4 0 42 -26
84 -57 162 -119 291 -266 327 -373 1 -3 4 -12 7 -20 4 -8 9 -24 13 -35 14 -37
13 -160 0 -213 -13 -48 -78 -190 -94 -202 -3 -3 -20 -25 -36 -50 -41 -61 -60
-83 -132 -152 -146 -142 -298 -220 -641 -327 -331 -104 -441 -198 -486 -411
-15 -71 -16 -277 -2 -350 3 -14 7 -52 10 -85 10 -110 16 -180 22 -235 3 -30 7
-84 10 -120 2 -36 6 -92 9 -125 6 -85 17 -277 20 -360 1 -38 3 -83 4 -98 0
-15 13 -39 27 -54 25 -24 29 -25 102 -19 79 6 128 12 172 21 14 3 52 10 85 15
114 21 392 100 472 136 17 8 34 14 37 14 17 0 329 151 406 196 59 35 201 126
220 141 8 6 49 37 90 68 312 233 611 577 798 917 36 65 132 255 132 261 0 3
10 26 22 53 12 27 23 54 24 59 2 6 21 62 43 125 40 113 84 273 94 337 3 17 7
35 10 40 4 7 11 48 22 140 2 12 6 34 9 50 27 142 28 643 1 781 -1 9 -8 53 -15
97 -18 117 -29 169 -58 275 -9 30 -17 61 -18 69 -6 30 -59 183 -102 291 -66
167 -227 476 -254 488 -5 2 -8 9 -8 14 0 19 -171 249 -270 362 -45 51 -206
210 -265 261 -32 28 -74 65 -94 82 -20 18 -39 33 -43 33 -4 0 -13 6 -21 14
-22 23 -206 149 -277 191 -242 142 -497 251 -760 324 -85 23 -300 67 -375 76
-27 3 -66 8 -85 11 -41 6 -536 15 -541 10z"/>
<path d="M5037 5339 c-58 -23 -92 -52 -125 -109 -38 -64 -38 -166 0 -231 48
-81 116 -121 207 -121 254 -2 333 342 104 453 -57 27 -128 30 -186 8z"/>
</g>
</svg>
